<svg xmlns="http://www.w3.org/2000/svg"
		 width="64"
		 height="64"
		 viewBox="0 0 512 512">
	<g opacity="0.7">
		<path fill="#6e60b8" d="M43.6 185.3h337.5l2.8.1v-40.2l-2.8.1H43.6l-2.8-.1v40.2l2.8-.1z"/>
		<path fill="#6353B2" d="M96.8 145.3H43.6l-2.8-.1v40.2l2.8-.1h53.2v-40z"/>
		<path fill="#6e60b8" d="M381.1 326.7H43.6l-2.8-.1v40.2l2.8-.1h337.5l2.8.1v-40.2l-2.8.1z"/>
		<path fill="#6353B2" d="M96.8 326.7H43.6l-2.8-.1v40.2l2.8-.1h53.2v-40z"/>
		<path fill="#8479C2" d="M381.1 0H43.6c-18.7 0-34 15.3-34 34.1v81a34.2 34.2 0 0034.1 34.1h337.5a34.2 34.2 0 0034.1-34.1v-81A34.3 34.3 0 00381.1 0z"/>
		<path fill="#6e60b8" d="M56.6 115.1v-81A34.1 34.1 0 0190.6 0h-47c-18.7 0-34 15.3-34 34.1v81a34.2 34.2 0 0034.1 34.1h47a34.3 34.3 0 01-34.1-34.1z"/>
		<path fill="#6e60b8" d="M376.3 31.3H48.5a7.6 7.6 0 00-7.6 7.6v71.3c0 4.2 3.4 7.6 7.6 7.6h327.8c4.2 0 7.6-3.4 7.6-7.6V38.9c0-4.2-3.4-7.6-7.6-7.6z"/>
		<path fill="#6353B2" d="M87.9 110.2V38.9c0-4.2 3.4-7.6 7.6-7.6h-47a7.6 7.6 0 00-7.6 7.6v71.3c0 4.2 3.4 7.6 7.6 7.6h47a7.6 7.6 0 01-7.6-7.6z"/>
		<circle fill="#FFE181" cx="87.7" cy="74.6" r="16.2"/>
		<path fill="#FEC458" d="M90.6 74.6a16 16 0 016.6-13 16.2 16.2 0 100 26.2 17.2 17.2 0 01-6.6-13.2z"/>
		<circle fill="#FFE181" cx="145.6" cy="74.6" r="16.2"/>
		<path fill="#FEC458" d="M148.5 74.6a16 16 0 016.6-13 16.2 16.2 0 100 26.2 17 17 0 01-6.6-13.2z"/>
		<circle fill="#FFE181" cx="203.4" cy="74.6" r="16.2"/>
		<path fill="#FEC458" d="M206.4 74.6a16 16 0 016.6-13 16.2 16.2 0 100 26.2 17 17 0 01-6.6-13.2z"/>
		<path fill="#8479C2" d="M381.1 183H43.6a34.2 34.2 0 00-34.1 34.1v81a34.2 34.2 0 0034.1 34.1h337.5a34.2 34.2 0 0034.1-34.1v-81a34.1 34.1 0 00-34.1-34.1z"/>
		<path fill="#6e60b8" d="M56.6 298.1v-81A34.2 34.2 0 0190.7 183h-47a34.2 34.2 0 00-34.1 34.1v81a34.2 34.2 0 0034.1 34.1h47a34.3 34.3 0 01-34.1-34.1z"/>
		<path fill="#6e60b8" d="M376.3 214.3H48.5a7.6 7.6 0 00-7.6 7.6v71.3c0 4.2 3.4 7.6 7.6 7.6h327.8c4.2 0 7.6-3.4 7.6-7.6v-71.3c0-4.2-3.4-7.6-7.6-7.6z"/>
		<path fill="#6353B2" d="M87.9 293.2v-71.3c0-4.2 3.4-7.6 7.6-7.6h-47a7.6 7.6 0 00-7.6 7.6v71.3c0 4.2 3.4 7.6 7.6 7.6h47a7.6 7.6 0 01-7.6-7.6z"/>
		<circle fill="#FFE181" cx="87.7" cy="257.6" r="16.2"/>
		<path fill="#FEC458" d="M90.6 257.6a16 16 0 016.6-13 16.2 16.2 0 100 26.2 17 17 0 01-6.6-13.2z"/>
		<circle fill="#FFE181" cx="145.6" cy="257.6" r="16.2"/>
		<path fill="#FEC458" d="M148.5 257.6a16 16 0 016.6-13 16.2 16.2 0 100 26.2c-4-3.1-6.6-7.9-6.6-13.2z"/>
		<circle fill="#FFE181" cx="203.4" cy="257.6" r="16.2"/>
		<path fill="#FEC458" d="M206.4 257.6a16 16 0 016.6-13 16.2 16.2 0 100 26.2c-4-3.1-6.6-7.9-6.6-13.2z"/>
		<path fill="#8479C2" d="M381.1 362.9H43.6A34.2 34.2 0 009.5 397v81a34.2 34.2 0 0034.1 34.1h337.5a34.2 34.2 0 0034.1-34.1v-81a34.1 34.1 0 00-34.1-34.1z"/>
		<path fill="#6e60b8" d="M56.6 477.9v-81a34.2 34.2 0 0134.1-34.1h-47a34.2 34.2 0 00-34.1 34.1v81A34.2 34.2 0 0043.7 512h47a34.1 34.1 0 01-34.1-34.1z"/>
		<path fill="#6e60b8" d="M376.3 394.2H48.5a7.6 7.6 0 00-7.6 7.6v71.3c0 4.2 3.4 7.6 7.6 7.6h327.8c4.2 0 7.6-3.4 7.6-7.6v-71.3c0-4.2-3.4-7.6-7.6-7.6z"/>
		<path fill="#6353B2" d="M87.9 473.1v-71.3c0-4.2 3.4-7.6 7.6-7.6h-47a7.6 7.6 0 00-7.6 7.6v71.3c0 4.2 3.4 7.6 7.6 7.6h47a7.6 7.6 0 01-7.6-7.6z"/>
		<circle fill="#FFE181" cx="87.7" cy="437.4" r="16.2"/>
		<path fill="#FEC458" d="M90.6 437.4a16 16 0 016.6-13 16.2 16.2 0 100 26.2 17 17 0 01-6.6-13.2z"/>
		<circle fill="#FFE181" cx="145.6" cy="437.4" r="16.2"/>
		<path fill="#FEC458" d="M148.5 437.4a16 16 0 016.6-13 16.2 16.2 0 100 26.2c-4-3.1-6.6-7.8-6.6-13.2z"/>
		<circle fill="#FFE181" cx="203.4" cy="437.4" r="16.2"/>
		<path fill="#FEC458" d="M206.4 437.4a16 16 0 016.6-13 16.2 16.2 0 100 26.2c-4-3.1-6.6-7.8-6.6-13.2z"/>
		<path fill="#6353B2" d="M273.5 82.3h-20.9a7.7 7.7 0 010-15.4h20.9a7.7 7.7 0 010 15.4zm13.1 183h-34.1a7.7 7.7 0 010-15.4h34.1a7.7 7.7 0 010 15.4zm65.3 0h-32.7a7.7 7.7 0 010-15.4h32.7a7.7 7.7 0 010 15.4zm-65.3 179.9h-34.1a7.7 7.7 0 010-15.4h34.1a7.7 7.7 0 010 15.4zm65.3 0h-32.7a7.7 7.7 0 010-15.4h32.7a7.7 7.7 0 010 15.4z"/>
	</g>
	<g>
		<path
			transform="scale(-2 2) translate(-547 -180)"
			stroke="#000" stroke-width="10" stroke-opacity="0.65"
			fill="#54E360" d="M381,426.6v-19.8c0-3.4-2.8-6.2-6.2-6.2H304c-4.6,0-8.3-3.7-8.3-8.3v-26.7c0-4.6,3.7-8.3,8.3-8.3h70.8
			c3.4,0,6.2-2.8,6.2-6.2v-19.8c0-6.3,7-10.2,12.3-6.8l75.1,47.6c5,3.1,5,10.4,0,13.5l-75.1,47.6C388,436.8,381,432.9,381,426.6
			L381,426.6z"/>
	</g>
</svg>
