<svg version="1.1"
		 width="64"
		 height="64"
		 xmlns="http://www.w3.org/2000/svg"
		 viewBox="0 0 64 64">
	<path fill="#e5ab1a" d="M2.7 7.7H62v12.8H2.7z"/>
	<circle fill="#fff" cx="9.6" cy="14.1" r="4.6"/>
	<path fill="#aa7705" d="M53.5 7.7H62v12.8h-8.5z"/>
	<path fill="#e5ab1a" d="M2.7 25.2H62V38H2.7z"/>
	<circle fill="#fff" cx="9.6" cy="31.6" r="4.6"/>
	<path fill="#aa7705" d="M53.5 25.2H62V38h-8.5z"/>
	<path fill="#e5ab1a" d="M2.7 42.7H62v12.8H2.7z"/>
	<circle fill="#fff" cx="9.6" cy="49.1" r="4.6"/>
	<path fill="#aa7705" d="M53.5 42.7H62v12.8h-8.5z"/>
	<path
		d="M42.5 59.7v-4.9c0-.8.7-1.6 1.6-1.6h17.7c1.2 0 2.1-.9 2.1-2.1v-6.7c0-1.2-.9-2.1-2.1-2.1H44.1c-.8 0-1.6-.7-1.6-1.6v-4.9c0-1.6-1.8-2.6-3.1-1.7L20.7 46c-1.3.8-1.3 2.6 0 3.4l18.8 11.9c1.3.9 3-.1 3-1.6h0z"
		fill="#54e360" stroke="#000" stroke-width="5" stroke-opacity=".65"/>
</svg>
