<svg xmlns="http://www.w3.org/2000/svg" viewBox="0 0 64 64"><style>.st0{fill:#e5ab1a}.st1{fill:#fff}.st2{fill:#aa7705}</style><g id="Calque_2"><path class="st0" d="M2.7 3.7H62v12.8H2.7z"/><circle class="st1" cx="9.6" cy="10.1" r="4.6"/><path class="st2" d="M53.5 3.7H62v12.8h-8.5z"/><g><path class="st0" d="M2.7 21.2H62V34H2.7z"/><circle class="st1" cx="9.6" cy="27.6" r="4.6"/><path class="st2" d="M53.5 21.2H62V34h-8.5z"/></g><g><path class="st0" d="M2.7 38.7H62v12.8H2.7z"/><circle class="st1" cx="9.6" cy="45.1" r="4.6"/><path class="st2" d="M53.5 38.7H62v12.8h-8.5z"/></g></g><path d="M42.5 59.7v-4.9c0-.8.7-1.6 1.6-1.6h17.7c1.2 0 2.1-.9 2.1-2.1v-6.7c0-1.2-.9-2.1-2.1-2.1H44.1c-.8 0-1.6-.7-1.6-1.6v-4.9c0-1.6-1.8-2.6-3.1-1.7L20.7 46c-1.3.8-1.3 2.6 0 3.4l18.8 11.9c1.3.9 3-.1 3-1.6h0z" fill="#54e360" stroke="#000" stroke-width="5" stroke-opacity=".65" id="Calque_5"/></svg>